<svg id="图层_1" data-name="图层 1" xmlns="http://www.w3.org/2000/svg" viewBox="0 0 998.44 144.6"><defs><style>.cls-1{fill:#ed6c00;}.cls-2{fill:#231815;}</style></defs><polygon class="cls-1" points="412.08 103.17 387.12 44.27 362.64 103.17 412.08 103.17"/><rect class="cls-2" x="948.8" y="5.29" width="49.64" height="132.33"/><path class="cls-2" d="M1003.13,400.81V323.35H953.55s.23,82.07,0,82.07C950,428,912.14,424.51,911,404.05v-80.7H861.44v80.18c3.49,32.7,22.61,52.32,70.56,52,47.14,2.19,70-22.08,71.13-54.75" transform="translate(-68.81 -318.06)"/><polygon class="cls-2" points="733.43 41.45 778.23 41.45 778.23 5.3 638.93 5.3 638.93 41.45 683.78 41.45 683.78 137.62 733.43 137.62 733.43 41.45"/><polygon class="cls-2" points="578.59 137.64 624.65 137.64 624.65 5.29 577.48 5.29 577.48 69.54 528.19 5.29 482.94 5.29 482.94 137.64 530.08 137.64 530.08 73.06 578.59 137.64"/><path class="cls-2" d="M480.89,421H431.46l24.47-58.89Zm60.45,34.72L485.68,323.35H426.73L371.1,455.68H417L431.46,421l12.65,34.69Z" transform="translate(-68.81 -318.06)"/><polygon class="cls-2" points="242.37 137.64 291.95 137.64 291.95 5.29 242.37 5.29 242.37 52.8 199.59 52.8 199.59 5.29 150.28 5.29 150.28 137.38 199.59 137.38 199.59 89.83 242.37 89.83 242.37 137.64"/><path class="cls-2" d="M123.43,356.73c-.23-9.42,15.8-10.61,21.41-8.15s9,6.61,9.47,12h48.2c-.49-11.9-7.28-28.33-26.92-36.5-13.56-5.64-31.09-6.14-38.23-6,0,0-28.22-.88-45.86,10.85s-18.34,27.59-18.58,33.54,1.4,25.5,24.43,35c11.34,4.68,28.55,8.43,38.57,10.77s20.39,4.24,18.39,15.2-19.06,10.28-22.92,8.66-10.66-4-11.82-16.14H68.81s.8,23.61,21.86,36.49c13.87,8.46,32.4,10.23,46.78,10.23,7.45,0,13.8-.49,17.78-.76,11.73-.83,36.64-7,47.14-25.87s3.29-36.8-2.35-43.72c-9.74-12-22.46-15.84-38-19.52-28.64-6.8-38.4-6.55-38.6-16.06" transform="translate(-68.81 -318.06)"/></svg>