<svg version="1.1" id="Layer_1" xmlns="http://www.w3.org/2000/svg" xmlns:xlink="http://www.w3.org/1999/xlink" x="0px" y="0px"
	 width="100%" viewBox="0 0 1024 1024" enable-background="new 0 0 1024 1024" xml:space="preserve">
<path fill="#000000" opacity="1.000000" stroke="none" 
	d="
M189.789886,522.292847 
	C192.594040,527.967957 195.292816,533.289429 197.980865,538.616394 
	C199.477615,541.582458 201.701447,543.041809 205.190247,542.813721 
	C217.807388,541.988770 230.449936,543.589050 243.110764,542.085205 
	C248.236084,541.476440 253.553543,542.794067 258.919617,542.518799 
	C268.324097,542.036133 277.751831,541.454041 287.213379,541.739197 
	C291.728363,541.875305 296.287537,540.726440 300.657562,542.327393 
	C301.405182,540.736633 300.557220,540.128784 299.760956,539.528870 
	C290.943054,532.885193 283.190002,525.248535 277.751129,515.528137 
	C276.571106,513.419128 275.274292,512.716309 272.700378,512.575500 
	C253.911026,511.547455 235.170212,514.250793 216.390274,513.108459 
	C207.865189,512.589905 199.281357,513.864624 190.785126,512.329346 
	C189.847031,512.159851 188.730103,512.326782 187.948669,510.475311 
	C194.960922,506.365417 200.285950,499.548584 209.079254,497.825256 
	C222.092209,495.274933 225.094635,491.734650 227.203888,478.873138 
	C228.237015,472.573364 228.221298,466.228790 228.323318,459.944763 
	C228.514481,448.170319 233.555191,438.064789 237.928848,427.654694 
	C239.087219,424.897675 240.323181,422.130493 241.070709,419.250488 
	C245.782974,401.094757 258.278778,388.366364 271.484741,376.364136 
	C275.852112,372.394867 282.451019,371.733337 287.971527,369.411682 
	C304.767334,362.348114 322.115051,357.118835 340.172852,354.460999 
	C350.826813,352.892914 361.480957,354.289642 372.071655,355.185028 
	C387.948395,356.527313 403.685822,355.303864 419.362061,353.308136 
	C434.062714,351.436615 448.745728,349.438629 463.495392,347.994751 
	C472.497498,347.113495 481.328094,349.162567 487.848877,354.923401 
	C497.756927,363.676849 498.296570,370.856689 491.830658,382.481506 
	C489.482300,386.703552 489.097534,390.677490 489.643890,395.362885 
	C490.528656,402.950470 490.416748,410.639191 491.960419,418.189178 
	C492.677185,421.694794 494.009460,425.371613 497.394653,425.934387 
	C508.851837,427.839233 518.427612,434.420258 529.220398,437.919464 
	C539.119507,441.128906 547.640686,439.252502 555.662598,432.889923 
	C561.057373,428.611053 567.273254,429.819366 572.860413,432.257843 
	C578.790344,434.845917 584.332153,438.004395 591.035767,438.630615 
	C597.276611,439.213562 600.931274,438.081665 603.918762,432.547882 
	C605.756287,429.144226 607.891479,428.022400 611.942749,428.581970 
	C619.668213,429.649017 627.464661,430.480652 635.335022,429.975952 
	C639.166321,429.730255 642.477173,428.653076 645.362488,426.125336 
	C649.351746,422.630463 653.748108,422.272919 658.853882,423.632019 
	C664.068604,425.020111 669.623047,428.184052 674.780212,423.097229 
	C675.710388,422.179779 677.002563,422.490387 678.027771,423.202454 
	C678.699463,423.668945 679.525513,424.203003 679.806519,424.898987 
	C684.643677,436.878052 695.723877,435.475677 705.451965,436.856628 
	C708.743774,437.323914 711.041260,435.543304 713.013977,432.945251 
	C717.611023,426.890564 718.640625,426.495422 725.444519,429.710083 
	C745.169739,439.029785 764.300171,435.299164 783.101929,427.104858 
	C790.768860,423.763428 791.095276,423.490601 796.342651,429.714569 
	C800.197876,434.287292 804.257141,438.689545 808.272034,443.125580 
	C811.985840,447.229004 815.183594,451.540466 816.647766,457.074890 
	C818.874817,465.492950 824.626099,473.007721 823.079590,482.387299 
	C821.366638,492.775909 823.111084,503.816376 816.956055,513.383545 
	C815.284851,515.981262 813.520569,518.340271 810.803650,519.755432 
	C803.222046,523.704346 796.691101,529.041931 790.426880,534.766968 
	C789.589600,535.532227 788.509827,536.603821 787.562622,536.583557 
	C781.719116,536.458801 779.911133,540.790649 777.508057,544.862061 
	C774.202698,550.461975 769.878967,554.861206 762.743530,555.408508 
	C753.962891,556.082031 745.192566,556.472778 736.386597,556.735413 
	C726.923279,557.017517 717.492371,556.250854 708.046509,556.762329 
	C697.589722,557.328491 687.084534,556.916931 676.725891,555.733521 
	C668.515564,554.795593 660.534790,556.470032 652.427490,556.467163 
	C643.835327,556.464111 635.156311,557.026245 626.512817,556.995544 
	C622.792542,556.982361 619.827515,557.644653 617.326111,560.797424 
	C613.747192,565.308228 608.782959,564.939209 604.085205,562.988586 
	C595.171204,559.287231 585.751953,557.371460 576.340637,557.655334 
	C555.404846,558.286926 534.481567,557.125000 513.529602,557.960999 
	C504.739685,558.311707 495.666168,558.302979 486.769257,557.392090 
	C480.142059,556.713501 475.536865,547.468140 478.682495,541.443604 
	C479.737335,541.610352 479.923248,542.489868 480.025757,543.287109 
	C480.631927,548.001831 480.777191,551.466492 488.057678,549.887207 
	C496.863647,547.977112 499.711426,546.142761 498.801819,537.102966 
	C498.387970,532.990112 495.528259,530.610840 491.286987,530.569702 
	C487.313446,530.531189 483.311340,529.772461 479.255280,531.667786 
	C476.200775,527.049194 472.719757,523.335754 466.716064,523.012451 
	C454.269318,522.342163 447.884430,527.682190 447.053528,540.154236 
	C446.721497,545.138428 445.497498,549.580139 442.178772,553.470459 
	C439.994446,556.030884 439.326202,559.443481 438.087219,562.524170 
	C437.597260,563.742493 437.218414,565.779907 436.420135,565.981140 
	C427.589996,568.206970 421.767426,577.732666 410.843658,575.364502 
	C397.283783,572.424805 386.675537,579.526428 376.259186,587.216797 
	C365.780396,594.953247 353.505005,598.226990 340.818359,595.044922 
	C318.576996,589.466370 296.099426,590.806763 273.701172,591.689819 
	C257.829620,592.315613 242.089615,590.850891 226.290649,590.596313 
	C219.453949,590.486023 215.181091,584.621582 212.035507,578.678467 
	C206.921051,569.015381 204.208344,557.951721 196.271500,549.944397 
	C188.752945,542.359131 186.040176,532.655212 183.273178,522.927734 
	C182.435974,519.984497 182.449738,516.820374 183.395294,512.433838 
	C185.937759,516.280151 187.808899,519.110840 189.789886,522.292847 
M326.497559,424.661041 
	C322.404327,425.418304 321.502228,421.852783 320.133301,419.508087 
	C317.604248,415.176239 314.472687,414.184143 310.161255,416.508514 
	C307.820129,417.770630 305.502777,419.077881 303.191925,420.394989 
	C296.406128,424.262604 296.333466,424.793427 298.749756,432.184113 
	C299.482117,434.424225 301.653320,437.252563 299.726227,439.226624 
	C295.834656,443.212891 292.171692,448.485077 285.070435,445.703857 
	C281.265198,444.213501 279.249725,446.245056 277.779327,449.617157 
	C276.250763,453.122711 275.759369,456.870972 274.663696,460.448914 
	C273.160553,465.357422 273.481445,466.857086 278.218018,468.717346 
	C284.959381,471.364868 287.087585,474.967865 285.893646,481.656769 
	C285.238464,485.327179 281.947845,486.859161 279.643494,489.094910 
	C277.539154,491.136597 275.963562,493.235260 277.180237,496.004303 
	C278.903381,499.926056 280.949829,503.739319 283.207855,507.382111 
	C285.048462,510.351562 287.710999,511.778412 291.257324,509.723267 
	C296.402496,506.741638 300.540741,507.680267 304.898193,511.974091 
	C307.878784,514.911072 307.430176,517.675537 307.228333,520.978821 
	C306.770996,528.462585 307.406464,529.243835 314.360474,530.952759 
	C318.492371,531.968140 322.625610,532.978088 326.894165,534.023804 
	C328.734650,530.892578 330.464905,527.677368 332.455872,524.632690 
	C334.754913,521.116943 343.932587,520.206116 346.655182,523.082886 
	C353.843018,530.677856 353.843079,530.677917 363.939697,526.597290 
	C372.624878,523.087036 373.319794,522.466125 369.956329,513.849426 
	C367.550659,507.686462 372.312744,505.003479 374.725189,501.424164 
	C376.650085,498.568146 380.765991,499.067169 383.968353,499.741760 
	C388.712646,500.741119 390.632263,499.477661 391.596588,494.502045 
	C392.280273,490.974670 392.982269,487.353607 394.897003,484.232330 
	C396.208069,482.095154 395.251099,480.646423 393.739746,479.519623 
	C392.158142,478.340485 390.309143,477.504303 388.533875,476.603333 
	C380.299164,472.424133 379.612823,464.479340 386.997833,458.600464 
	C392.877899,453.919495 393.069489,452.773560 389.374451,446.096893 
	C388.088440,443.773193 387.106720,441.276245 385.757629,438.993408 
	C383.686127,435.488220 380.589966,433.919373 376.981201,436.387390 
	C372.058594,439.753906 368.627350,438.616302 364.625336,434.540375 
	C362.009430,431.876190 360.436920,429.870056 361.471649,426.041870 
	C362.008453,424.055969 361.397156,421.760223 361.307281,419.604309 
	C361.245056,418.112396 360.650787,416.717285 359.051636,416.882477 
	C355.271301,417.273102 352.520508,414.791718 349.299835,413.691345 
	C342.005066,411.199097 340.547760,411.741882 338.056152,419.259827 
	C336.936462,422.638336 335.248688,424.819946 331.268311,424.259155 
	C329.977661,424.077271 328.619263,424.375885 326.497559,424.661041 
M269.287872,393.777588 
	C263.197144,399.113129 259.057312,405.915253 254.698547,412.624695 
	C245.759003,426.385406 242.062927,441.896790 240.796646,457.743011 
	C239.702225,471.438202 241.955017,485.195953 245.406433,498.602966 
	C246.523651,502.942810 248.814621,505.788055 253.867142,504.833221 
	C257.657867,504.116852 261.370087,502.965851 265.650055,503.525879 
	C263.424713,492.605011 260.751556,482.625763 259.280670,472.345245 
	C258.139038,464.365967 258.771454,456.349487 260.421021,449.110718 
	C263.692993,434.752350 269.961578,421.459320 280.179657,410.046021 
	C287.442139,401.934082 296.320129,396.502838 305.635956,392.153046 
	C315.546906,387.525391 326.579193,386.629028 337.800812,386.590942 
	C359.217194,386.518311 380.635620,387.684113 402.091034,385.759003 
	C415.055237,384.595764 428.198730,386.469055 441.324982,385.066376 
	C450.956909,384.037109 460.767883,384.661346 470.499390,384.609070 
	C472.041473,384.600769 473.687164,384.687775 474.732330,383.532776 
	C479.168457,378.630615 482.482117,373.022156 485.240021,367.098236 
	C483.101227,365.543182 481.240845,366.094208 479.464905,366.141632 
	C466.748413,366.481354 454.026611,367.272247 441.318359,367.090637 
	C428.331696,366.905090 415.405365,367.725525 402.460785,368.235535 
	C374.408722,369.340759 346.310852,366.097534 318.254059,370.082886 
	C299.415253,372.758881 283.498688,380.453339 269.287872,393.777588 
M358.001801,568.475464 
	C368.402191,566.289368 378.176910,562.851562 387.306091,557.043091 
	C396.956146,550.903259 404.088837,542.523376 410.540680,533.542725 
	C413.398468,529.564819 417.054779,525.986633 418.728149,521.112000 
	C421.304443,513.607239 423.971924,506.168579 426.117737,498.491119 
	C430.139679,484.101227 429.222687,469.710236 428.235809,455.159332 
	C427.732056,447.731506 423.328339,441.451080 423.193542,433.744507 
	C419.808258,433.530090 416.678467,433.062256 413.574860,433.197052 
	C408.646149,433.411102 407.450836,435.049469 408.047821,439.989716 
	C408.462128,443.418060 408.818054,446.860077 409.411713,450.259033 
	C412.989746,470.743927 412.764862,490.832733 403.607819,510.088379 
	C399.241302,519.270386 393.768555,527.855835 386.323364,534.633118 
	C373.406769,546.390808 357.014221,550.308105 340.232239,552.102783 
	C331.551636,553.031067 322.795837,554.125854 314.141388,554.487854 
	C296.585449,555.222107 278.908844,556.311340 261.384125,553.216309 
	C258.636780,552.731140 255.737839,552.801941 252.934616,552.992432 
	C244.878860,553.540161 236.891602,553.384888 228.835892,552.503845 
	C222.800995,551.843933 216.635986,552.373596 210.523239,552.373596 
	C210.593170,556.338501 212.726044,558.261658 213.779404,560.663391 
	C217.288803,568.665039 220.979004,576.418884 232.170258,572.931580 
	C232.461456,572.840759 232.858658,572.911865 233.152863,573.035217 
	C238.749893,575.382507 244.729324,574.203552 250.338043,573.999695 
	C265.279297,573.456726 280.214172,574.155701 295.116119,574.281860 
	C303.870331,574.356018 312.666412,574.105347 321.331787,573.671326 
	C333.334930,573.070129 345.422516,571.705383 358.001801,568.475464 
M615.901123,511.263733 
	C615.901123,496.607178 615.901123,481.950653 615.901123,467.272614 
	C618.006531,467.372528 618.483154,468.518585 618.889954,469.584625 
	C624.421265,484.079071 632.358765,497.458038 638.402039,511.717133 
	C640.012329,515.516663 642.255127,518.638916 647.296814,517.751221 
	C649.232239,517.410400 651.301086,517.571472 653.279358,517.782593 
	C657.335693,518.215576 659.298523,516.671753 658.725037,512.475830 
	C658.184326,508.520050 658.601929,504.568024 658.625732,500.609558 
	C658.726196,483.891113 658.559814,467.170441 658.752563,450.453583 
	C658.810120,445.461945 655.897827,444.574921 652.084473,444.476410 
	C648.366089,444.380371 644.871460,444.748962 645.124329,449.921631 
	C645.635986,460.387634 644.523438,470.874390 645.835449,481.357147 
	C646.278076,484.894043 645.152344,488.627228 644.680481,492.831268 
	C643.637756,491.993988 643.093323,491.780609 642.957031,491.415100 
	C637.755615,477.458923 629.736755,464.805969 624.248047,450.994385 
	C622.224731,445.902985 618.815918,443.709137 613.423645,444.295197 
	C611.776611,444.474213 610.087036,444.445007 608.431030,444.321899 
	C604.277710,444.013123 602.953064,445.937714 602.981995,449.974915 
	C603.129761,470.629669 603.109558,491.286041 603.047729,511.941528 
	C603.037048,515.510925 603.266663,518.230164 608.029785,517.859375 
	C611.975159,517.552063 616.611877,518.759644 615.901123,511.263733 
M784.905701,515.451538 
	C788.415955,513.734680 791.207886,511.323486 793.393066,507.979980 
	C799.440369,498.727264 801.234497,488.649628 801.064880,477.707794 
	C800.942810,469.829407 798.029297,463.067139 794.416870,456.748901 
	C789.039429,447.343536 780.319702,444.199402 769.271423,443.729584 
	C758.001648,443.250336 744.486511,454.283081 741.643188,464.340363 
	C739.041443,473.542969 738.963867,482.474121 739.903809,492.084900 
	C742.236328,515.933044 766.275818,524.628235 784.905701,515.451538 
M678.685303,517.790955 
	C686.849731,517.831665 686.770996,517.831177 686.821716,509.432281 
	C686.858826,503.285522 686.505920,497.147827 687.108398,490.980042 
	C687.418274,487.807495 688.731812,486.997253 691.436584,487.006683 
	C696.929688,487.025909 702.423767,487.059082 707.915833,486.979309 
	C711.469421,486.927734 713.085510,488.499969 713.024231,492.092407 
	C712.916260,498.416199 712.944092,504.742676 712.953430,511.067993 
	C712.962769,517.390259 713.490662,517.495544 720.362183,517.858582 
	C725.881226,518.150208 726.072510,515.254150 726.067261,511.065643 
	C726.044861,493.136078 726.189819,475.205261 726.417419,457.276733 
	C726.601990,442.730438 729.358887,443.836426 713.589111,444.678009 
	C713.308411,444.693024 713.043945,445.010742 712.607666,445.293823 
	C712.607666,448.985901 712.571655,452.780182 712.617798,456.573456 
	C712.664246,460.397766 712.710388,464.225342 712.908264,468.043640 
	C713.096741,471.681519 711.466492,473.162231 707.881653,473.093445 
	C702.723755,472.994476 697.558899,473.025757 692.402039,473.173584 
	C688.451843,473.286743 686.580994,471.771881 686.726135,467.609283 
	C686.928955,461.789886 686.680542,455.955536 686.845093,450.133759 
	C686.949951,446.423187 686.234558,444.072571 681.718323,444.214111 
	C675.312439,444.414917 673.380310,445.418396 673.360657,449.993774 
	C673.270630,470.968140 673.312805,491.943146 673.211975,512.917419 
	C673.195984,516.229858 674.312927,518.013306 678.685303,517.790955 
M523.253296,511.707764 
	C524.054138,510.441803 524.932068,509.217560 525.643738,507.903320 
	C531.379944,497.310455 528.418152,483.467102 517.531555,477.536713 
	C513.048523,475.094604 508.115356,473.495239 503.118408,472.307739 
	C499.960449,471.557251 497.158234,470.164459 494.907166,467.907318 
	C491.881348,464.873260 492.128235,459.870789 495.198151,457.864807 
	C501.065918,454.030579 507.947174,455.807770 511.136627,461.981201 
	C512.915894,465.425262 522.318298,467.707611 525.334045,465.441711 
	C526.465088,464.591858 526.298157,463.484894 526.163757,462.284180 
	C525.382385,455.299255 521.833008,450.341858 515.744385,446.809875 
	C510.647156,443.852966 505.212921,444.187927 499.744354,444.159851 
	C489.516235,444.107330 482.966797,448.457184 479.051117,457.887024 
	C475.524048,466.380890 479.188782,476.326447 487.058716,481.090179 
	C491.785706,483.951447 496.379059,486.529938 502.024872,487.283813 
	C504.862610,487.662720 507.734100,489.106354 510.129211,491.004852 
	C513.993713,494.068146 514.485779,501.768433 511.000153,504.205688 
	C502.992676,509.804779 495.684631,507.981964 491.436829,499.146423 
	C490.513519,497.225983 489.461304,496.242493 487.322235,496.320801 
	C484.992706,496.406036 482.656616,496.353729 480.324310,496.310822 
	C476.592316,496.242126 475.548889,498.334839 476.458252,501.503998 
	C478.472321,508.523071 482.503174,514.289429 489.497559,516.694214 
	C501.153717,520.701782 512.563477,520.441162 523.253296,511.707764 
M388.204193,418.401581 
	C389.523407,420.700897 390.866180,422.987061 392.155396,425.303070 
	C393.543762,427.797119 396.184143,429.180237 398.412079,428.481964 
	C403.856262,426.775757 409.209442,427.814941 414.615356,427.806824 
	C427.353271,427.787659 440.090790,427.581940 452.828857,427.518250 
	C455.641357,427.504181 457.929169,426.386078 458.866425,423.892334 
	C461.934052,415.730286 465.981476,407.909027 467.978943,399.549042 
	C466.375916,397.741974 464.592133,398.435974 463.010437,398.212250 
	C457.449585,397.425568 452.096497,400.318481 446.853821,399.872711 
	C437.026978,399.037140 427.240295,399.549683 417.443848,399.269684 
	C412.284210,399.122162 407.064911,399.651276 401.969635,399.050842 
	C396.622284,398.420715 392.363861,402.391907 386.978668,401.570312 
	C382.068848,400.821228 376.981720,400.243744 371.018219,402.240082 
	C377.876038,406.633087 384.026398,411.048157 388.204193,418.401581 
M536.777344,504.168610 
	C536.469971,504.942261 536.162476,505.715851 535.855225,506.489563 
	C531.677612,517.009888 532.800598,518.531311 543.936035,517.797852 
	C546.236572,517.646301 547.320129,516.952148 548.069580,514.540161 
	C552.408081,500.576263 549.594055,500.928375 566.268738,501.081696 
	C568.265625,501.100067 570.267273,501.130127 572.256409,501.286285 
	C573.981262,501.421692 575.749573,501.913879 576.001526,503.928986 
	C576.394165,507.070221 578.590088,509.669037 578.353577,513.024536 
	C578.154419,515.849609 580.148438,517.237305 582.688110,517.580627 
	C584.653503,517.846375 586.676270,517.740295 588.672424,517.715393 
	C593.686829,517.652832 595.546326,515.769958 593.288513,511.356689 
	C590.431030,505.770813 589.825378,499.679504 587.704285,493.986359 
	C582.917114,481.136871 579.647339,467.818268 575.873352,454.667328 
	C572.795776,443.943268 573.224792,443.817383 561.925110,444.097717 
	C560.760254,444.126617 559.597534,444.238708 558.432678,444.269012 
	C556.206238,444.327057 554.677063,445.199463 553.971069,447.482056 
	C552.121887,453.460602 549.708374,459.303864 548.348206,465.386292 
	C545.451355,478.340759 541.098938,490.829132 536.777344,504.168610 
M636.110413,532.795715 
	C637.226257,532.455872 638.806030,533.406677 639.519348,531.509888 
	C635.784180,530.053162 631.943909,530.341736 628.151306,530.251892 
	C626.354736,530.209351 625.221130,531.087097 625.223450,532.896912 
	C625.229614,537.719482 625.264221,542.546326 625.495605,547.361511 
	C625.565613,548.818237 626.356201,550.876587 628.113831,550.383484 
	C634.923950,548.472717 642.939026,553.541626 648.337708,546.693665 
	C651.188232,547.227295 651.230042,552.169678 655.613281,549.639587 
	C652.202942,545.459290 651.345093,540.775024 653.734863,536.042175 
	C650.882874,534.958496 650.204651,537.440186 648.544861,537.544189 
	C646.826904,537.467041 646.293823,534.192627 643.936890,535.837158 
	C643.282043,536.545959 643.432251,537.389404 643.609314,538.194397 
	C645.547485,547.007202 643.069336,546.232788 636.569641,546.265137 
	C635.903687,546.268494 635.236755,546.249939 634.571838,546.212769 
	C632.878540,546.118347 631.037109,546.104980 630.928345,543.778992 
	C630.825928,541.588867 632.476440,541.144165 634.201355,540.764221 
	C635.759705,540.421082 638.134399,541.483948 638.407654,538.327148 
	C636.626221,536.458618 633.912964,537.808044 631.938599,536.697021 
	C629.179688,535.144531 630.709717,533.396912 636.110413,532.795715 
M560.855591,547.137207 
	C561.780029,537.947632 559.750122,535.079529 552.830139,535.381409 
	C550.079224,535.501343 548.587769,537.525940 546.701355,539.006348 
	C542.726196,531.853149 541.824219,539.933594 539.378784,540.117126 
	C537.451782,538.413879 535.524841,536.710571 533.597839,535.007324 
	C533.216309,535.358154 532.834778,535.708984 532.453186,536.059814 
	C532.709045,540.431335 535.575012,543.903564 536.895508,547.908997 
	C537.316650,549.186646 537.899231,550.525818 539.559448,550.433289 
	C541.079834,550.348450 541.791626,549.097656 542.404541,547.906189 
	C543.387756,545.994690 543.235657,543.296387 545.966003,542.461304 
	C550.204834,551.251709 554.456848,552.757385 560.855591,547.137207 
M609.815247,535.951538 
	C602.485413,534.601746 599.449463,536.848022 599.979309,543.946350 
	C600.203003,546.942932 601.076477,549.746460 600.440613,552.927979 
	C599.977844,555.243347 602.113281,556.616028 604.641663,556.792175 
	C608.942688,557.091980 612.170532,555.468567 613.771240,551.438293 
	C615.653992,546.697815 615.973877,541.795776 613.819458,537.037170 
	C613.326477,535.948181 611.771912,536.168274 609.815247,535.951538 
M753.725586,540.300293 
	C753.119263,545.575012 755.381836,549.456482 759.900452,550.568970 
	C763.675110,551.498352 766.456299,549.830994 768.154358,546.570068 
	C770.073853,542.883789 768.371643,536.953186 765.229065,535.539001 
	C761.177673,533.715881 756.209534,535.523132 753.725586,540.300293 
M687.688232,542.578308 
	C687.462097,541.607178 687.181152,540.645142 687.019775,539.663330 
	C686.445801,536.171814 684.222900,535.160583 680.940430,535.177734 
	C677.733521,535.194458 674.564148,535.433228 673.804260,539.097290 
	C673.196106,542.030029 671.034302,545.120178 674.815491,548.095886 
	C680.996643,552.960266 685.735291,551.419434 687.688232,542.578308 
M718.232422,540.949707 
	C717.567200,535.782776 714.285889,534.598328 709.711731,535.311035 
	C705.009827,536.043701 704.321899,539.389099 704.149231,543.345703 
	C703.936707,548.214844 707.359863,549.600464 710.941467,550.461792 
	C715.206970,551.487549 717.395935,548.727356 718.232422,540.949707 
M506.916473,535.243347 
	C501.647980,537.244995 499.708527,543.900635 503.179504,548.067627 
	C505.424988,550.763428 510.976044,551.455139 512.975281,549.075500 
	C515.487061,546.085754 515.709412,542.259644 515.020203,538.762756 
	C514.285767,535.035706 510.797821,535.137634 506.916473,535.243347 
M563.924072,546.595154 
	C564.136047,548.322388 563.664246,550.713440 566.580933,550.276794 
	C568.758240,549.950806 568.885010,548.150879 568.484009,546.381897 
	C568.098267,544.680298 568.494995,543.069763 568.893311,541.462280 
	C569.718323,538.132996 572.652527,536.769592 575.275696,537.109497 
	C577.927307,537.453125 576.965271,540.587891 577.005798,542.650574 
	C577.021912,543.471252 576.806274,544.294922 576.716797,545.119446 
	C576.523193,546.904541 574.532593,549.603210 577.549866,550.089783 
	C580.872375,550.625549 580.537659,547.259583 580.771912,545.091431 
	C580.910339,543.810181 580.427734,542.473022 580.332092,541.153198 
	C580.081238,537.694519 577.538147,534.531128 579.705566,530.512756 
	C576.149170,531.143005 576.533264,535.259460 572.745544,535.309631 
	C563.902893,535.426697 563.049927,536.872864 563.924072,546.595154 
M665.781494,550.486572 
	C668.435791,549.693054 670.709900,547.900696 669.881653,545.197510 
	C668.788757,541.630493 666.833679,544.979126 665.262573,545.346130 
	C663.484619,545.761536 661.967468,545.354370 660.717224,544.043518 
	C659.726318,543.004578 660.111389,541.924194 660.700378,540.846130 
	C661.615601,539.170593 663.060181,538.852539 664.871887,538.759399 
	C666.521606,538.674561 667.438293,541.244690 669.399536,539.756775 
	C669.518799,537.606445 669.083130,535.424255 666.589355,535.433655 
	C663.477600,535.445435 659.771179,533.917480 657.491272,537.587036 
	C655.920349,540.115295 655.154846,542.962830 656.786926,545.581909 
	C658.616272,548.517700 660.754578,551.505127 665.781494,550.486572 
M742.031494,541.546509 
	C742.536255,537.397156 745.099731,538.637329 747.535339,539.410400 
	C748.682861,539.774719 749.945801,539.990540 750.409363,538.443970 
	C750.759277,537.276611 749.988220,536.533630 748.979797,536.181030 
	C746.103943,535.175293 743.094116,534.332581 740.368164,536.285767 
	C737.628235,538.248840 736.432007,540.905396 737.097595,544.511230 
	C737.755310,548.074402 740.289551,549.451904 743.084961,550.516663 
	C745.568420,551.462646 747.576416,550.067383 749.322388,548.364746 
	C750.847229,546.877808 751.298889,545.361877 749.401855,543.611633 
	C746.906738,543.864319 743.359497,548.782593 742.031494,541.546509 
M728.456604,539.024719 
	C730.672729,539.855591 730.264709,541.533264 729.664673,543.130188 
	C728.986694,544.934692 729.265747,546.724731 729.488708,548.519653 
	C729.622009,549.592407 730.269287,550.385254 731.418213,550.432739 
	C732.819580,550.490723 733.657959,549.606079 733.657532,548.315552 
	C733.656433,545.016968 734.064880,541.560364 733.228943,538.458191 
	C732.085938,534.216431 727.963013,535.305786 724.803345,535.205688 
	C721.282166,535.094116 721.611267,537.576416 721.760986,540.044800 
	C721.869812,541.838989 721.359741,543.664429 721.390564,545.471436 
	C721.418579,547.108398 720.240906,549.783569 722.852539,549.961121 
	C725.610229,550.148499 724.632385,547.394958 724.752258,545.764160 
	C724.942871,543.169006 724.343506,540.295715 728.456604,539.024719 
M588.020020,547.293823 
	C588.442505,545.336731 588.634277,543.405457 588.393066,541.364990 
	C588.081116,538.726257 589.550598,537.503662 592.406616,537.457214 
	C593.813538,540.651917 592.642395,543.876526 593.191956,546.913635 
	C593.439087,548.279297 593.834900,549.581726 595.582275,549.567200 
	C596.577698,549.558777 597.130371,548.858948 597.108093,547.954651 
	C597.021973,544.468628 596.864075,540.983887 596.689758,537.500793 
	C596.634460,536.396606 596.020081,535.348511 594.898621,535.533203 
	C592.111511,535.992371 589.335449,535.118103 586.497009,535.933105 
	C583.993164,536.651917 582.983704,538.275696 583.481262,540.283813 
	C584.279175,543.504089 584.231262,546.685120 583.852356,549.833862 
	C586.251099,550.887939 587.248535,549.820251 588.020020,547.293823 
M697.280334,548.527466 
	C697.759338,549.989563 698.681763,550.790527 700.260986,550.276794 
	C701.359680,549.919373 701.810730,548.950684 701.534607,547.902222 
	C700.204041,542.849121 701.016113,537.702942 700.757019,532.605774 
	C700.687500,531.237854 700.403381,529.925110 697.903748,529.862610 
	C696.577820,535.709534 697.672729,541.776062 697.280334,548.527466 
M529.762695,542.616699 
	C530.081055,538.638367 528.295044,534.657104 530.195862,530.779846 
	C528.454773,530.170471 526.474487,529.946228 526.641785,531.604370 
	C527.270020,537.827881 524.235168,544.416138 527.934692,551.204285 
	C530.745850,548.424377 529.619202,545.829407 529.762695,542.616699 
M690.245178,545.166626 
	C690.530518,546.850708 689.387451,548.839050 691.269287,550.209961 
	C694.567261,547.418213 694.553894,531.927002 690.735229,529.387329 
	C689.609192,534.491882 690.566040,539.420776 690.245178,545.166626 
M519.273743,535.748596 
	C519.258240,539.541687 519.219604,543.334900 519.239868,547.127808 
	C519.246826,548.425476 519.135437,550.075012 520.997253,550.074524 
	C522.817383,550.074097 522.881104,548.450928 522.803650,547.140991 
	C522.522583,542.387390 521.900879,537.658569 522.649841,532.872559 
	C522.875061,531.433472 522.354370,529.876099 520.266907,529.766113 
	C518.648987,531.203552 519.488708,533.138123 519.273743,535.748596 
z"/>
<path fill="#000000" opacity="1.000000" stroke="none" 
	d="
M491.472656,545.287659 
	C487.434601,547.693054 485.556549,546.182068 485.118561,542.286865 
	C484.915924,540.484863 485.012604,538.637390 485.103943,536.817078 
	C485.223450,534.435974 486.060944,532.449280 488.875366,532.548645 
	C491.783997,532.651306 494.312164,533.959290 494.548645,537.045654 
	C494.769196,539.924072 494.786133,543.129578 491.472656,545.287659 
z"/>
<path fill="#000000" opacity="1.000000" stroke="none" 
	d="
M357.927185,464.353851 
	C363.380432,476.861816 355.420837,492.013580 344.080383,496.301544 
	C330.195770,501.551544 315.361053,494.866577 310.461578,480.985901 
	C305.657654,467.376007 312.567749,455.476807 325.889465,449.516388 
	C338.590149,443.833740 353.375031,451.532074 357.927185,464.353851 
z"/>
<path fill="#000000" opacity="1.000000" stroke="none" 
	d="
M785.295837,489.982056 
	C783.204590,496.264862 782.284607,502.608185 774.982605,505.115814 
	C768.970459,507.180481 761.601990,505.557098 758.514404,499.918213 
	C753.209656,490.229950 751.361328,480.281158 755.099365,469.212799 
	C757.472534,462.185852 761.383118,458.135223 768.388184,457.277954 
	C773.876770,456.606262 778.762024,459.000549 781.400269,463.674988 
	C785.906128,471.658508 787.593079,480.393677 785.295837,489.982056 
z"/>
<path fill="#000000" opacity="1.000000" stroke="none" 
	d="
M566.004944,469.031006 
	C567.269226,474.255981 569.862915,478.591766 570.800415,483.553101 
	C571.444458,486.961578 570.448914,488.042572 567.149719,488.224731 
	C555.201904,488.884216 554.228027,487.654663 557.817017,476.197632 
	C558.943665,472.600952 559.852844,468.931519 560.732117,465.264313 
	C561.074402,463.836609 560.795715,461.844757 562.669739,461.693756 
	C564.902283,461.513855 565.003113,463.552795 565.241699,465.226288 
	C565.405212,466.373108 565.688416,467.502838 566.004944,469.031006 
z"/>
<path fill="#000000" opacity="1.000000" stroke="none" 
	d="
M603.993042,543.685547 
	C603.628052,541.188293 603.807129,539.298340 606.122375,538.372070 
	C607.275574,537.910767 608.415222,537.805603 609.274658,538.856567 
	C610.424133,540.262207 610.511169,542.148499 609.946960,543.563904 
	C608.506653,547.177063 606.304810,546.691223 603.993042,543.685547 
z"/>
</svg>