<?xml version="1.0" encoding="UTF-8" standalone="no"?>
<svg
   xmlns:dc="http://purl.org/dc/elements/1.1/"
   xmlns:cc="http://creativecommons.org/ns#"
   xmlns:rdf="http://www.w3.org/1999/02/22-rdf-syntax-ns#"
   xmlns:svg="http://www.w3.org/2000/svg"
   xmlns="http://www.w3.org/2000/svg"
   viewBox="0 0 755.90533 755.90533"
   height="755.90533"
   width="755.90533"
   xml:space="preserve"
   id="svg2"
   version="1.1"><metadata
     id="metadata8"><rdf:RDF><cc:Work
         rdf:about=""><dc:format>image/svg+xml</dc:format><dc:type
           rdf:resource="http://purl.org/dc/dcmitype/StillImage" /></cc:Work></rdf:RDF></metadata><defs
     id="defs6"><clipPath
       id="clipPath18"
       clipPathUnits="userSpaceOnUse"><path
         id="path16"
         d="M 0,566.929 H 566.929 V 0 H 0 Z" /></clipPath><clipPath
       id="clipPath50"
       clipPathUnits="userSpaceOnUse"><path
         id="path48"
         d="M 0,566.929 H 566.929 V 0 H 0 Z" /></clipPath></defs><g
     transform="matrix(1.3333333,0,0,-1.3333333,0,755.90533)"
     id="g10"><g
       id="g12"><g
         clip-path="url(#clipPath18)"
         id="g14"><g
           transform="translate(136.9314,287.9269)"
           id="g20"><path
             id="path22"
             style="fill:#81171b;fill-opacity:1;fill-rule:nonzero;stroke:none"
             d="m 0,0 c -0.369,0.918 -0.737,1.835 -1.106,2.753 -2.384,7.559 -6.792,27.192 3.744,46.207 4.597,8.3 10.764,14.817 18.33,19.37 11.967,7.203 24.011,7.204 30.482,7.205 h 0.142 c 17.219,0.002 37.454,0.38 60.885,0.818 6.38,0.107 12.76,0.214 19.139,0.321 -2.302,-3.372 -4.604,-6.744 -6.907,-10.116 -4.015,-0.068 -8.03,-0.136 -12.045,-0.204 C 89.183,65.916 68.904,65.537 51.593,65.535 H 51.451 C 45.565,65.534 35.713,65.533 26.125,59.763 20.081,56.125 15.122,50.86 11.386,44.114 2.728,28.49 6.436,12.088 8.431,5.762 8.795,4.051 9.159,2.339 9.523,0.628 6.349,0.419 3.174,0.209 0,0" /></g><g
           transform="translate(233.1402,327.6484)"
           id="g24"><path
             id="path26"
             style="fill:#231f20;fill-opacity:1;fill-rule:nonzero;stroke:none"
             d="m 0,0 c 0.318,-0.918 0.636,-1.835 0.955,-2.753 7.908,-22.808 -1.983,-43.675 -3.148,-46.037 -0.039,-0.08 -0.072,-0.145 -0.084,-0.17 -10e-4,0 -5.462,-10.944 -15.339,-18.25 -7.44,-5.504 -14.837,-7.008 -24.837,-8.93 -7.469,-1.436 -14.61,-2.087 -35.163,-1.954 -8.768,0.057 -20.403,0.259 -34.186,0.861 -1.814,3.663 -3.628,7.326 -5.442,10.989 2.054,-0.009 5.583,-0.029 9.957,-0.084 29.845,-0.374 43.277,-1.656 62.75,0.793 10.292,1.295 15.022,2.72 19.665,5.581 9.231,5.688 13.418,14.155 14.791,17.023 6.441,13.451 4.292,27.462 2.803,37.169 -0.335,2.183 -0.692,3.965 -0.943,5.134 C -5.481,-0.419 -2.74,-0.209 0,0" /></g><g
           transform="translate(102.7105,282.9036)"
           id="g28"><path
             id="path30"
             style="fill:#231f20;fill-opacity:1;fill-rule:nonzero;stroke:none"
             d="m 0,0 c 2.686,-5.337 5.372,-10.674 8.058,-16.012 18.768,0.245 37.535,0.489 56.302,0.733 -2.817,1.723 -6.696,4.579 -10.22,9.07 -2.006,2.555 -3.424,5.038 -4.431,7.151 C 33.14,0.628 16.57,0.314 0,0" /></g><g
           transform="translate(258.8501,346.7408)"
           id="g32"><path
             id="path34"
             style="fill:#81171b;fill-opacity:1;fill-rule:nonzero;stroke:none"
             d="m 0,0 c -18.581,-0.209 -37.163,-0.419 -55.744,-0.628 2.498,-1.295 6.305,-3.679 9.767,-7.814 2.345,-2.8 3.818,-5.55 4.744,-7.674 11.652,0.209 23.303,0.418 34.954,0.628 C -4.186,-10.326 -2.093,-5.163 0,0" /></g></g></g><text
       id="text38"
       style="font-variant:normal;font-weight:normal;font-stretch:normal;font-size:58.67279816px;font-family:'Acumin Variable Concept';-inkscape-font-specification:AcuminVariableConcept;writing-mode:lr-tb;fill:#231f20;fill-opacity:1;fill-rule:nonzero;stroke:none"
       transform="matrix(0.87441881,0,0,-1,261.293,280.5557)"><tspan
         id="tspan36"
         y="0"
         x="0 37.609264 77.682785 122.03942 165.45729"></tspan></text>
<text
       id="text42"
       style="font-variant:normal;font-weight:normal;font-stretch:normal;font-size:15.27649975px;font-family:'Arial Rounded MT Bold';-inkscape-font-specification:ArialRoundedMTBold;writing-mode:lr-tb;fill:#231f20;fill-opacity:1;fill-rule:nonzero;stroke:none"
       transform="matrix(1,0,0,-1,265.1982,263.189)"><tspan
         id="tspan40"
         y="0"
         x="0 11.30461 20.378851 24.518782 28.658714 36.736927 45.811169 52.502274 56.642208 65.869209 75.417023 79.236153 89.425575 97.00425 106.07849 115.15273 119.29266 123.43259 132.50684 141.73384 150.80807">Delivering Excellence</tspan></text>
<g
       id="g44"><g
         clip-path="url(#clipPath50)"
         id="g46"><g
           transform="translate(184.6326,291.5059)"
           id="g52"><path
             id="path54"
             style="fill:#81171b;fill-opacity:1;fill-rule:nonzero;stroke:none"
             d="m 0,0 c -7.783,0 -14.092,6.309 -14.092,14.092 0,7.783 6.309,14.093 14.092,14.093 7.783,0 14.092,-6.31 14.092,-14.093 C 14.092,6.309 7.783,0 0,0 m 31.633,11.268 c -1.408,0.579 -2.787,1.228 -4.189,1.822 -0.339,0.144 -0.445,0.342 -0.444,0.694 0.005,1.977 -0.141,3.943 -0.584,5.874 -0.109,0.476 0.144,0.691 0.467,0.915 1.341,0.929 2.656,1.898 4.024,2.785 1.135,0.735 1.378,2.02 0.79,3.079 -1.366,2.46 -2.659,4.96 -3.998,7.434 -0.491,0.909 -1.575,1.247 -2.619,0.847 -1.59,-0.611 -3.18,-1.221 -4.759,-1.859 -0.456,-0.185 -0.785,-0.165 -1.142,0.214 -1.307,1.392 -2.806,2.559 -4.396,3.608 -0.332,0.22 -0.44,0.437 -0.362,0.84 0.297,1.548 0.523,3.11 0.84,4.654 0.21,1.021 0.094,1.919 -0.637,2.695 L 4.94,47.808 C 3.812,47.574 3.255,46.776 2.845,45.777 2.261,44.352 1.605,42.957 1.004,41.539 0.861,41.203 0.671,41.09 0.314,41.091 c -1.976,0.007 -3.942,-0.137 -5.872,-0.581 -0.481,-0.111 -0.695,0.148 -0.916,0.464 -0.944,1.352 -1.892,2.701 -2.828,4.058 -0.773,1.119 -1.759,1.402 -2.972,0.765 -2.521,-1.326 -5.031,-2.673 -7.537,-4.026 -0.872,-0.471 -1.205,-1.566 -0.814,-2.585 0.61,-1.59 1.221,-3.179 1.856,-4.758 0.18,-0.449 0.185,-0.781 -0.203,-1.144 -1.406,-1.318 -2.58,-2.834 -3.637,-4.439 -0.211,-0.32 -0.427,-0.409 -0.801,-0.34 -1.655,0.308 -3.322,0.556 -4.972,0.885 -0.983,0.196 -1.763,-0.063 -2.427,-0.776 -0.969,-3.194 -1.938,-6.388 -2.907,-9.582 0.254,-1.228 1.171,-1.749 2.229,-2.178 1.394,-0.565 2.758,-1.205 4.138,-1.807 0.246,-0.107 0.349,-0.274 0.349,-0.541 -0.007,-2.032 0.149,-4.049 0.597,-6.035 0.104,-0.46 -0.19,-0.652 -0.485,-0.858 -1.336,-0.936 -2.65,-1.907 -4.021,-2.79 -1.096,-0.707 -1.369,-2.048 -0.787,-3.086 1.332,-2.376 2.566,-4.807 3.858,-7.205 0.625,-1.161 1.633,-1.507 2.86,-1.03 1.554,0.604 3.112,1.199 4.656,1.826 0.458,0.186 0.784,0.16 1.14,-0.219 1.306,-1.393 2.807,-2.558 4.398,-3.606 0.33,-0.217 0.44,-0.437 0.364,-0.842 -0.31,-1.637 -0.538,-3.29 -0.88,-4.92 -0.202,-0.964 0.071,-1.723 0.676,-2.426 3.228,-0.98 6.456,-1.959 9.684,-2.938 1.186,0.236 1.715,1.109 2.136,2.132 0.572,1.392 1.21,2.757 1.798,4.142 0.142,0.335 0.341,0.443 0.696,0.443 1.959,-0.004 3.908,0.132 5.823,0.571 0.418,0.096 0.667,-0.036 0.899,-0.375 0.943,-1.375 1.899,-2.741 2.861,-4.103 0.846,-1.199 1.832,-1.453 3.114,-0.771 2.469,1.312 4.929,2.641 7.387,3.973 0.875,0.474 1.253,1.513 0.88,2.517 -0.581,1.562 -1.196,3.113 -1.819,4.659 -0.333,0.826 -0.339,0.859 0.299,1.487 1.297,1.275 2.422,2.692 3.419,4.209 0.26,0.396 0.525,0.478 0.979,0.391 1.637,-0.313 3.289,-0.548 4.923,-0.873 0.925,-0.185 1.651,0.115 2.323,0.689 l 2.937,9.684 c -0.234,1.158 -1.071,1.7 -2.082,2.116" /></g></g></g></g></svg>